HIERARCHY
ROOT Hips
{
    OFFSET 0.000000 0.000000 0.000000
    CHANNELS 6 Xposition Yposition Zposition Zrotation Xrotation Yrotation
    JOINT Spine
    {
        OFFSET -0.000000 8.603107 0.000000
        CHANNELS 3 Zrotation Xrotation Yrotation
        JOINT Spine1
        {
            OFFSET -0.000000 23.906662 0.000000
            CHANNELS 3 Zrotation Xrotation Yrotation
            JOINT Neck
            {
                OFFSET -0.000000 23.808481 2.164407
                CHANNELS 3 Zrotation Xrotation Yrotation
                JOINT Head
                {
                    OFFSET -0.000000 14.688231 -2.098319
                    CHANNELS 3 Zrotation Xrotation Yrotation
                    End Site
                    {
                        OFFSET -0.000000 26.228985 0.000000
                    }
                }
            }
            JOINT LeftShoulder
            {
                OFFSET 4.178941 22.658146 -0.129871
                CHANNELS 3 Zrotation Xrotation Yrotation
                JOINT LeftArm
                {
                    OFFSET 9.497952 0.000000 0.000000
                    CHANNELS 3 Zrotation Xrotation Yrotation
                    JOINT LeftForeArm
                    {
                        OFFSET 38.855015 0.000000 0.000000
                        CHANNELS 3 Zrotation Xrotation Yrotation
                        JOINT LeftHand
                        {
                            OFFSET 24.940550 0.000000 0.000000
                            CHANNELS 3 Zrotation Xrotation Yrotation
                            End Site
                            {
                                OFFSET 15.737392 0.000000 0.000000
                            }
                        }
                    }
                }
            }
            JOINT RightShoulder
            {
                OFFSET -4.145384 22.658146 -0.129871
                CHANNELS 3 Zrotation Xrotation Yrotation
                JOINT RightArm
                {
                    OFFSET -9.497952 0.000000 0.000000
                    CHANNELS 3 Zrotation Xrotation Yrotation
                    JOINT RightForeArm
                    {
                        OFFSET -38.855015 0.000000 0.000000
                        CHANNELS 3 Zrotation Xrotation Yrotation
                        JOINT RightHand
                        {
                            OFFSET -24.940550 0.000000 0.000000
                            CHANNELS 3 Zrotation Xrotation Yrotation
                            End Site
                            {
                                OFFSET -15.737392 0.000000 0.000000
                            }
                        }
                    }
                }
            }
        }
    }
    JOINT LeftUpLeg
    {
        OFFSET 10.491594 0.000000 0.000000
        CHANNELS 3 Zrotation Xrotation Yrotation
        JOINT LeftLeg
        {
            OFFSET -0.000000 -46.080647 0.000000
            CHANNELS 3 Zrotation Xrotation Yrotation
            JOINT LeftFoot
            {
                OFFSET -0.000000 -50.184704 0.000000
                CHANNELS 3 Zrotation Xrotation Yrotation
                JOINT LeftToeBase
                {
                    OFFSET -0.000000 -6.819536 15.737392
                    CHANNELS 3 Zrotation Xrotation Yrotation
                    End Site
                    {
                        OFFSET -0.000000 0.000000 4.196638
                    }
                }
            }
        }
    }
    JOINT RightUpLeg
    {
        OFFSET -10.491594 0.000000 0.000000
        CHANNELS 3 Zrotation Xrotation Yrotation
        JOINT RightLeg
        {
            OFFSET -0.000000 -46.080647 0.000000
            CHANNELS 3 Zrotation Xrotation Yrotation
            JOINT RightFoot
            {
                OFFSET -0.000000 -50.184704 0.000000
                CHANNELS 3 Zrotation Xrotation Yrotation
                JOINT RightToeBase
                {
                    OFFSET -0.000000 -6.819536 15.737392
                    CHANNELS 3 Zrotation Xrotation Yrotation
                    End Site
                    {
                        OFFSET -0.000000 0.000000 4.196638
                    }
                }
            }
        }
    }
}
MOTION
Frames:    6
Frame Time:    0.008333
-9.895654    103.699364    41.265656    -0.123847    0.852901    93.582291    -2.385944    -5.146593    0.622511    2.645510    -0.501473    0.741292    3.771381    11.783010    1.037835    0.891891    1.978254    1.034486    11.179708    -1.077839    -13.350183    -15.166359    3.813470    6.786753    4.195208    -6.413280    -3.984967    -1.701802    -6.286415    1.235604    -14.329622    -0.347710    -7.986519    12.955141    -2.916795    2.050536    -1.325892    -3.842477    0.820463    1.508608    -3.847045    -1.068008    0.026625    3.245631    0.230661    -3.201456    6.409963    -1.999914    -2.424553    -7.376847    9.371482    0.000000    0.000000    0.000000    -1.260064    8.058347    -3.174734    2.959122    -4.049257    -1.732716    0.003839    -1.149515    -6.556722    0.000000    0.000000    0.000000    
-9.911978    103.695656    41.273232    -0.086428    0.852739    93.563164    -2.371954    -5.147060    0.627410    2.652520    -0.496345    0.745515    3.641919    11.726856    1.051557    1.081839    2.044078    1.075590    11.165351    -1.055085    -13.330058    -15.188012    3.739075    6.733642    4.274652    -6.361485    -4.044566    -1.553563    -6.225348    1.036407    -14.342206    -0.359739    -7.965421    12.933477    -2.952747    2.100021    -1.357671    -3.707274    0.815586    1.737304    -3.712663    -0.993913    0.032130    3.262229    0.212853    -3.205316    6.438993    -2.019621    -2.414083    -7.401528    9.422816    0.000000    0.000000    0.000000    -1.253645    8.059836    -3.177885    2.955622    -3.998700    -1.698279    0.005720    -1.184509    -6.581025    0.000000    0.000000    0.000000    
-9.927199    103.692291    41.279770    -0.048755    0.859898    93.545143    -2.380497    -5.153419    0.649732    2.672933    -0.464187    0.767788    3.602857    11.650390    1.054308    1.159889    2.072981    1.087119    11.201032    -1.059630    -13.322906    -15.297941    4.090749    6.712780    4.349140    -6.508770    -4.165254    -1.287086    -6.363537    1.075087    -14.359976    -0.383425    -8.008073    12.902752    -2.913219    2.153516    -1.338808    -3.647721    0.821109    1.751775    -3.652751    -0.957266    0.022363    3.273886    0.209411    -3.196856    6.472189    -2.004473    -2.413735    -7.413858    9.426208    0.000000    0.000000    0.000000    -1.262800    8.107139    -3.175422    2.974881    -4.024785    -1.578464    -0.037023    -1.182930    -6.700836    0.000000    0.000000    0.000000    
-9.944306    103.686714    41.287640    -0.016970    0.861498    93.521912    -2.358924    -5.164408    0.684920    2.611028    -0.437528    0.801382    3.728732    11.608475    1.048337    1.077971    2.044456    1.064030    11.320768    -1.044331    -13.362280    -15.373015    4.190176    6.652984    4.363619    -6.568457    -4.155575    -1.121297    -6.420472    0.965784    -14.263211    -0.376826    -8.050201    12.821095    -2.803270    2.183588    -1.330150    -3.688265    0.849377    1.664632    -3.692416    -0.964255    0.023339    3.282427    0.188471    -3.203378    6.500914    -1.964352    -2.393017    -7.437467    9.442051    0.000000    0.000000    0.000000    -1.258323    8.099690    -3.148118    2.970452    -3.975679    -1.587972    -0.047569    -1.227424    -6.702339    0.000000    0.000000    0.000000    
-9.956400    103.681793    41.297085    0.024281    0.862573    93.504242    -2.241944    -5.179768    0.697709    2.340669    -0.358927    0.806516    4.099302    11.406939    1.135703    0.754357    2.196491    1.089588    11.690010    -1.049029    -13.288453    -15.493269    4.035311    6.485959    4.238072    -6.393291    -3.977340    -0.875896    -6.253209    0.823291    -14.068759    -0.428520    -8.091623    12.731943    -2.596100    2.246736    -1.302295    -3.818186    0.870887    1.611547    -3.821232    -0.921057    0.027052    3.302432    0.172526    -3.202363    6.530551    -1.994712    -2.376666    -7.461671    9.495037    0.000000    0.000000    0.000000    -1.254954    8.103244    -3.131357    2.972468    -3.912506    -1.543438    -0.080368    -1.281228    -6.750645    0.000000    0.000000    0.000000    
-9.970461    103.676941    41.302212    0.051318    0.871022    93.489166    -2.293976    -5.153167    0.678245    2.529909    -0.455737    0.791619    3.913815    11.501492    1.222000    0.734630    2.102739    1.189449    11.340796    -1.009396    -13.309538    -15.321022    4.341198    6.540562    4.200332    -6.451259    -3.944920    -0.631854    -6.312078    0.845204    -14.237617    -0.321441    -7.944804    12.768619    -2.499960    2.213119    -1.316934    -3.926420    0.851461    1.481871    -3.928768    -0.937936    0.017058    3.305486    0.156163    -3.200935    6.563430    -1.977624    -2.345073    -7.473194    9.514833    0.000000    0.000000    0.000000    -1.265338    8.091748    -3.102941    2.975415    -3.858745    -1.515309    -0.112105    -1.328757    -6.793665    0.000000    0.000000    0.000000    
